HIERARCHY
ROOT root
{
	OFFSET 0.000000 0.000000 0.000000
	CHANNELS 6 Xposition Yposition Zposition Zrotation Yrotation Xrotation
	JOINT lhip
	{
		OFFSET 0.058581 -0.082280 -0.017664
		CHANNELS 3 Zrotation Yrotation Xrotation
		JOINT lknee
		{
			OFFSET 0.043451 -0.386469 0.008037
			CHANNELS 3 Zrotation Yrotation Xrotation
			JOINT lankle
			{
				OFFSET -0.014790 -0.426874 -0.037428
				CHANNELS 3 Zrotation Yrotation Xrotation
				JOINT ltoe
				{
					OFFSET 0.041054 -0.060286 0.122042
					CHANNELS 3 Zrotation Yrotation Xrotation
					End Site
					{
						OFFSET 0.000000 0.000000 0.000000
					}
				}
			}
		}
	}
	JOINT rhip
	{
		OFFSET -0.060310 -0.090513 -0.013543
		CHANNELS 3 Zrotation Yrotation Xrotation
		JOINT rknee
		{
			OFFSET -0.043257 -0.383688 -0.004843
			CHANNELS 3 Zrotation Yrotation Xrotation
			JOINT rankle
			{
				OFFSET 0.019056 -0.420046 -0.034562
				CHANNELS 3 Zrotation Yrotation Xrotation
				JOINT rtoe
				{
					OFFSET -0.034840 -0.062106 0.130323
					CHANNELS 3 Zrotation Yrotation Xrotation
					End Site
					{
						OFFSET 0.000000 0.000000 0.000000
					}
				}
			}
		}
	}
	JOINT lowerback
	{
		OFFSET 0.004439 0.124404 -0.038385
		CHANNELS 3 Zrotation Yrotation Xrotation
		JOINT upperback
		{
			OFFSET 0.004488 0.137956 0.026820
			CHANNELS 3 Zrotation Yrotation Xrotation
			JOINT chest
			{
				OFFSET -0.002265 0.056032 0.002855
				CHANNELS 3 Zrotation Yrotation Xrotation
				JOINT lowerneck
				{
					OFFSET -0.013390 0.211636 -0.033468
					CHANNELS 3 Zrotation Yrotation Xrotation
					JOINT upperneck
					{
						OFFSET 0.010113 0.088937 0.050410
						CHANNELS 3 Zrotation Yrotation Xrotation
						End Site
						{
							OFFSET 0.000000 0.000000 0.000000
						}
					}
				}
				JOINT lclavicle
				{
					OFFSET 0.071702 0.114000 -0.018898
					CHANNELS 3 Zrotation Yrotation Xrotation
					JOINT lshoulder
					{
						OFFSET 0.122921 0.045205 -0.019046
						CHANNELS 3 Zrotation Yrotation Xrotation
						JOINT lelbow
						{
							OFFSET 0.255332 -0.015649 -0.022946
							CHANNELS 3 Zrotation Yrotation Xrotation
							JOINT lwrist
							{
								OFFSET 0.265709 0.012698 -0.007375
								CHANNELS 3 Zrotation Yrotation Xrotation
								End Site
								{
									OFFSET 0.000000 0.000000 0.000000
								}
							}
						}
					}
				}
				JOINT rclavicle
				{
					OFFSET -0.082954 0.112472 -0.023707
					CHANNELS 3 Zrotation Yrotation Xrotation
					JOINT rshoulder
					{
						OFFSET -0.113228 0.046853 -0.008472
						CHANNELS 3 Zrotation Yrotation Xrotation
						JOINT relbow
						{
							OFFSET -0.260127 -0.014369 -0.031269
							CHANNELS 3 Zrotation Yrotation Xrotation
							JOINT rwrist
							{
								OFFSET -0.269108 0.006794 -0.006027
								CHANNELS 3 Zrotation Yrotation Xrotation
								End Site
								{
									OFFSET 0.000000 0.000000 0.000000
								}
							}
						}
					}
				}
			}
		}
	}
}
MOTION
Frames: 13
Frame Time: 0.033333
0.088125 1.146953 0.987237 -92.529602 -9.544651 93.067916 -4.551788 -0.108336 -8.339430 -5.731060 -9.029054 10.406913 3.411625 21.194564 -13.038689 0.000000 -0.000000 0.000000 -3.669711 7.422387 -20.434683 6.919508 3.581786 34.382967 0.706174 -14.149808 -24.764874 0.000000 -0.000000 0.000000 3.252570 -3.090513 10.643760 2.574389 -2.553504 -2.808216 0.094836 0.017594 1.184755 -2.781295 -3.757759 0.683557 3.467593 5.695096 6.706460 -27.492683 6.154250 -3.968821 -45.263392 0.621134 15.152780 2.372681 -38.588387 7.935921 6.627513 -14.032035 3.767504 23.964847 -5.446878 -5.628299 45.074677 -8.117064 10.633719 -0.433906 34.533519 3.378559 -7.550784 9.468259 1.817413 
0.088796 1.144051 0.991950 -93.332517 -8.607199 94.159011 -3.253322 1.397696 -7.708983 -5.759306 -8.607212 7.342707 2.523268 19.681036 -12.545385 0.000000 -0.000000 0.000000 -3.039456 6.765554 -20.724583 6.660372 4.055229 32.510290 0.959525 -13.325429 -24.229949 0.000000 -0.000000 0.000000 2.509551 -3.113150 10.854812 3.407141 -2.178637 -3.659290 0.621894 0.014790 1.513273 -1.588494 -3.438346 0.324345 3.038870 4.962411 6.323774 -26.081641 8.389217 -3.790819 -45.574356 1.233717 15.534901 -0.096439 -42.784184 10.156885 7.600070 -13.310043 2.238106 23.831066 -6.399182 -5.304878 43.883562 -7.292169 11.239408 -0.130802 35.672885 3.242694 -8.135708 9.278351 0.115177 
0.090097 1.142197 0.991770 -94.141799 -7.945449 95.290760 -2.494499 2.855829 -7.767641 -5.759142 -8.868840 5.460960 2.532421 18.828533 -12.613246 0.000000 -0.000000 0.000000 -2.412513 5.705763 -22.105938 6.228134 4.376482 32.478474 1.201741 -12.362118 -23.908801 0.000000 -0.000000 0.000000 1.564449 -2.937779 10.670973 4.110486 -1.928113 -3.845157 1.073342 -0.402108 2.168567 -0.654480 -3.335674 -0.883820 2.887583 4.529966 6.269685 -24.773678 10.053964 -3.674708 -46.303479 2.142482 15.499953 -1.968582 -46.625943 11.804860 7.501320 -12.080724 1.538928 24.237799 -7.070934 -5.605987 42.559911 -6.362082 11.583158 0.498073 36.536256 3.962019 -7.581491 8.897015 0.757270 
0.091670 1.141473 0.988558 -94.980344 -7.424878 96.225854 -2.041689 3.811115 -8.850495 -5.955691 -9.007894 5.700963 3.073230 19.039563 -13.356181 0.000000 -0.000000 0.000000 -1.889354 5.834672 -24.416606 5.551444 3.725295 34.399065 1.506865 -12.458465 -23.466441 0.000000 -0.000000 0.000000 0.335295 -2.885908 11.357935 4.872771 -1.499898 -4.415318 1.552825 -0.709022 2.790837 -0.242998 -3.268263 -2.580271 3.212572 4.532053 6.191865 -23.965852 11.579266 -3.726275 -47.110663 2.834734 15.730348 -3.983097 -49.171549 13.417921 10.557890 -12.153196 -1.093339 24.953558 -7.857737 -6.528929 41.707386 -5.724350 11.735867 0.046424 37.211922 3.345881 -11.885113 9.588372 0.951362 
0.094017 1.139969 0.983850 -95.687726 -7.134683 97.023644 -1.924382 3.141811 -11.440222 -6.414757 -8.075743 8.896821 3.869768 19.991487 -14.958117 0.000000 -0.000000 0.000000 -1.918352 6.849621 -27.914068 4.727536 1.025014 38.176335 2.124221 -14.338235 -22.965347 0.000000 -0.000000 0.000000 -0.040411 -2.900637 12.405464 4.875494 -1.290528 -4.230147 1.543312 -0.946160 2.500573 0.251435 -2.983646 -4.022505 3.589184 4.478366 5.686774 -23.631551 12.317633 -3.403614 -48.376010 3.492495 15.443166 -3.991465 -50.695996 11.585791 8.874337 -11.657142 -1.512623 25.445955 -8.159343 -6.633517 42.327104 -5.148905 11.040675 -1.146781 37.538809 1.180323 -11.268698 9.224925 0.576738 
0.096479 1.139629 0.976300 -96.638218 -6.927046 97.620583 -1.358212 2.460913 -15.684013 -7.733953 -5.840125 15.659179 4.068435 20.643954 -17.668145 0.000000 -0.000000 0.000000 -1.736346 7.687592 -32.063006 3.318852 -2.623708 43.535903 2.544126 -16.317320 -22.713786 0.000000 -0.000000 0.000000 -0.410529 -3.148010 14.861188 4.586985 -0.910171 -5.435358 1.533299 -0.805820 2.402205 0.342443 -2.765953 -4.524885 4.164518 4.292855 3.980769 -23.997347 13.152661 -3.194089 -49.974447 3.015393 14.722272 -1.913107 -49.762959 7.701954 9.400372 -11.765004 -0.160220 25.553958 -8.395000 -5.910906 43.700595 -4.037818 9.717353 -1.504210 37.041992 -0.064977 -11.922722 9.411008 0.596919 
0.099412 1.141174 0.964499 -97.820326 -6.966612 97.820225 -0.412800 1.774031 -21.010327 -9.015579 -2.652897 25.324312 3.386549 20.438718 -20.492247 0.000000 -0.000000 0.000000 -1.302787 8.182038 -35.686519 1.604201 -5.526367 49.189613 1.869806 -17.136183 -22.436742 0.000000 -0.000000 0.000000 -1.035087 -3.044069 18.247419 3.939425 -0.582995 -6.847055 1.648437 -0.605382 1.780112 0.059787 -2.108543 -3.672142 4.996705 3.868779 0.251622 -24.627715 13.262301 -3.126390 -51.394856 1.960633 13.823635 1.629824 -47.422985 2.644704 12.391441 -12.009886 1.729977 25.103018 -8.241886 -4.756100 45.639725 -2.867186 8.360514 -0.400324 36.111021 1.168713 -13.940140 10.120635 0.757255 
0.102573 1.143353 0.945831 -98.872865 -7.159584 98.073711 1.057979 1.094756 -26.606462 -9.976433 1.580328 35.526715 2.998299 19.027078 -23.334683 0.000000 -0.000000 0.000000 -0.999122 8.380080 -38.962071 -0.254581 -6.696597 54.612639 1.190952 -17.657302 -23.580839 0.000000 -0.000000 0.000000 -1.528165 -2.535319 21.474402 3.245944 -0.628798 -8.177940 1.622221 -0.582374 0.784286 -0.801564 -1.942679 -2.984807 6.194641 3.589925 -3.401976 -25.760859 12.131034 -2.562377 -51.198101 1.812349 14.208807 4.653323 -46.913163 -1.768034 4.997498 -10.315579 0.257582 24.723052 -7.289134 -3.747548 46.962899 -2.474082 8.694977 -0.239699 36.140931 3.344324 -10.794556 9.576074 1.247346 
0.105983 1.144354 0.919338 -99.432949 -7.941954 98.587087 1.530636 0.450932 -31.143144 -9.692164 4.907421 43.117641 3.780384 18.534748 -27.087437 0.000000 -0.000000 0.000000 -1.853658 7.738038 -42.171646 -0.202616 -6.183681 59.632264 0.660224 -16.635584 -27.235465 0.000000 -0.000000 0.000000 -1.577512 -2.290596 24.084116 1.925851 -0.917800 -10.153120 1.297930 -0.486681 0.669402 -1.516673 -2.683071 -5.403337 7.107480 3.350059 -3.768248 -28.291284 9.376549 -3.618854 -49.216365 0.369598 14.274857 8.781801 -44.277501 -7.404136 9.946512 -12.332665 2.842564 25.471712 -5.217011 -4.523617 46.813842 -2.478927 9.564317 1.107605 35.435087 5.294529 -10.844571 10.962246 2.489366 
0.107222 1.144764 0.889763 -99.789413 -8.845592 99.896418 1.006955 -0.034350 -36.141361 -8.828748 6.392564 49.726181 4.759680 19.770197 -30.362077 0.000000 -0.000000 0.000000 -3.173873 7.334797 -46.016695 1.285653 -5.825461 64.132587 -0.279228 -17.481010 -31.661218 0.000000 -0.000000 0.000000 -1.132372 -2.575682 24.602716 0.730266 -1.286010 -11.016637 0.496454 0.056585 0.340658 -1.360010 -4.060762 -10.241742 6.730320 2.949670 -1.079845 -30.880205 5.164500 -5.498535 -46.518735 -0.304861 15.834896 13.248957 -42.861692 -8.952202 8.159813 -13.110925 3.573172 26.662490 -1.582360 -6.299753 45.846799 -3.546709 11.760909 -0.567939 35.814732 6.838451 -10.815633 10.263865 3.960409 
0.104150 1.149040 0.872720 -100.414106 -9.380669 99.444034 0.994689 -1.157548 -37.326142 -8.373470 7.322357 53.406291 4.429045 21.732985 -31.824086 0.000000 -0.000000 0.000000 -3.314728 7.800492 -47.236416 2.376610 -5.970300 67.498671 -0.386309 -18.747110 -33.425899 0.000000 -0.000000 0.000000 -1.044410 -2.487995 25.233425 -0.280604 -1.336818 -10.172882 0.341079 0.465040 -0.694297 -2.474355 -4.083476 -10.962753 6.846790 2.425472 -2.421918 -30.717901 1.199445 -5.582962 -45.570636 -4.505246 14.741166 16.809299 -42.644718 -11.552711 7.344255 -12.954841 7.170183 26.418014 2.217234 -2.866382 44.744120 0.082465 10.405019 -1.168893 38.904247 7.971849 -7.668998 10.676085 5.221195 
0.101719 1.157720 0.868671 -100.927759 -9.546012 98.084769 1.890377 -0.793896 -35.971234 -8.581411 8.244735 54.455441 3.937433 21.891301 -31.756771 0.000000 -0.000000 0.000000 -3.082830 7.846764 -46.005295 2.853553 -7.110046 68.498966 -0.476173 -18.725753 -33.217838 0.000000 -0.000000 0.000000 -0.344473 -2.070241 26.532373 -1.265172 -1.250902 -11.285800 0.347726 0.016388 0.276773 -4.445002 -3.821627 -11.264296 6.601150 2.185182 -3.888891 -28.178886 -3.453395 -3.191478 -44.785886 -7.693818 11.376055 26.213449 -50.434220 -19.988817 3.737597 -11.578108 5.819540 23.230721 6.137529 -1.368109 43.988053 2.784193 7.899684 0.556152 49.238485 12.879399 -3.107632 9.685721 5.862162 
0.098780 1.171720 0.876331 -100.761381 -9.875084 97.149582 2.444217 0.467108 -33.163904 -9.574767 7.203780 51.721122 3.454525 20.599361 -29.814819 0.000000 -0.000000 0.000000 -2.317311 6.380729 -43.625380 3.752382 -7.459915 66.603042 -0.509233 -18.242274 -31.905581 0.000000 -0.000000 0.000000 -0.616183 -1.936317 26.199948 -1.512433 -1.239207 -13.387181 0.320718 0.057932 2.233354 -5.336802 -3.863779 -11.184845 5.902965 1.758847 -2.547835 -24.604550 -6.256059 -3.607090 -42.022958 -11.081861 10.525929 36.426480 -59.086598 -28.260109 5.440763 -11.610337 1.364595 20.457344 7.242873 -3.706731 41.544354 4.775130 7.113883 4.622250 62.210686 20.692229 -3.394062 9.774760 5.043235 
